<svg width="32" height="32" viewBox="0 0 32 32" fill="none" xmlns="http://www.w3.org/2000/svg">
  <!-- Circular background with gradient -->
  <defs>
    <linearGradient id="iconGradient" x1="0%" y1="0%" x2="100%" y2="100%">
      <stop offset="0%" style="stop-color:#3b82f6;stop-opacity:1" />
      <stop offset="100%" style="stop-color:#10b981;stop-opacity:1" />
    </linearGradient>
  </defs>
  
  <!-- Icon container -->
  <rect x="0" y="0" width="32" height="32" rx="8" fill="url(#iconGradient)"/>
  
  <!-- Circular arrow symbol -->
  <path d="M16 6C11.58 6 8 9.58 8 14C8 18.42 11.58 22 16 22C20.42 22 24 18.42 24 14C24 12.5 23.58 11.08 22.88 9.88L21.46 11.3C21.82 12.14 22 13.05 22 14C22 17.31 19.31 20 16 20C12.69 20 10 17.31 10 14C10 10.69 12.69 8 16 8C16.95 8 17.86 8.18 18.7 8.54L20.12 7.12C18.92 6.42 17.5 6 16 6Z" fill="white"/>
  
  <!-- Arrow head -->
  <path d="M20.12 7.12L18.7 8.54L20.12 10L22.88 9.88L20.12 7.12Z" fill="white"/>
</svg>
